<?xml version="1.0" encoding="UTF-8" standalone="no"?>
<svg
   width="22"
   height="22"
   viewBox="0 0 22 22"
   fill="none"
   version="1.1"
   id="svg1"
   sodipodi:docname="heart.svg"
   inkscape:version="1.4 (e7c3feb1, 2024-10-09)"
   xmlns:inkscape="http://www.inkscape.org/namespaces/inkscape"
   xmlns:sodipodi="http://sodipodi.sourceforge.net/DTD/sodipodi-0.dtd"
   xmlns="http://www.w3.org/2000/svg"
   xmlns:svg="http://www.w3.org/2000/svg">
  <defs
     id="defs1" />
  <sodipodi:namedview
     id="namedview1"
     pagecolor="#ffffff"
     bordercolor="#000000"
     borderopacity="0.25"
     inkscape:showpageshadow="2"
     inkscape:pageopacity="0.0"
     inkscape:pagecheckerboard="0"
     inkscape:deskcolor="#d1d1d1"
     inkscape:zoom="11.313799"
     inkscape:cx="14.318797"
     inkscape:cy="6.36391"
     inkscape:window-width="1528"
     inkscape:window-height="665"
     inkscape:window-x="0"
     inkscape:window-y="371"
     inkscape:window-maximized="0"
     inkscape:current-layer="svg1" />
  <path
     d="m 12.2208,2.78491 -2e-4,2.4e-4 L 11.3741,3.73671 11.0005,4.15666 10.627,3.73671 9.78047,2.78515 9.77992,2.78454 C 7.78271,0.531979 4.59762,0.209745 2.47664,2.1814 -0.0175439,4.50389 -0.15494,8.70296 2.0848,11.2289 l 8.3142,9.3653 c 0,0 0,10e-5 1e-4,10e-5 0.3381,0.3806 0.8604,0.3806 1.1986,0 l 10e-5,-10e-5 8.3144,-9.3655 10e-5,-10e-5 C 22.1559,8.70275 22.0186,4.50401 19.5245,2.18152 m -7.3037,0.60339 c 2.0018,-2.253186 5.1827,-2.574967 7.3035,-0.60365"
     stroke="#101010"
     id="path1"
     sodipodi:nodetypes="cccccccccccccccccc" />
</svg>
