<svg width="12" height="14" viewBox="0 0 12 14" fill="none" xmlns="http://www.w3.org/2000/svg">
<path d="M9.08765 5.25377H6.2572V6.67576C6.2572 7.68386 5.65573 8.50404 4.91646 8.50404C4.1772 8.50404 3.57573 7.68386 3.57573 6.67576V3.588L2.3672 4.57832C2.00781 4.87034 1.78808 5.40105 1.78808 5.96984V7.17092L0.298367 8.34407C0.0134597 8.56752 -0.0852336 9.06522 0.0804966 9.45373L1.57021 12.9732C1.73407 13.3617 2.09905 13.4937 2.38396 13.2703L4.30941 11.7543H6.85309C7.51042 11.7543 8.04485 11.0255 8.04485 10.1292H8.3428C8.67239 10.1292 8.93868 9.76606 8.93868 9.31661V7.69147H9.08765C9.33531 7.69147 9.53456 7.41977 9.53456 7.08205V5.86319C9.53456 5.52547 9.33531 5.25377 9.08765 5.25377ZM11.838 4.30408L10.3483 0.784641C10.1844 0.396132 9.81947 0.26409 9.53456 0.487546L7.60911 2.00349H5.70601C5.48255 2.00349 5.26468 2.08983 5.07475 2.2498L4.45093 2.78051C4.27589 2.92779 4.17161 3.18934 4.17161 3.46866V6.67576C4.17161 7.23694 4.50493 7.69147 4.91646 7.69147C5.328 7.69147 5.66132 7.23694 5.66132 6.67576V4.4412H9.08765C9.66305 4.4412 10.1304 5.07856 10.1304 5.86319V6.58689L11.6202 5.41374C11.9051 5.18775 12.0019 4.69259 11.838 4.30408Z" fill="white" stroke="none"/>
</svg>