<svg width="11" height="14" viewBox="0 0 11 14" fill="none" xmlns="http://www.w3.org/2000/svg">
<path d="M5.49736 0.764879C5.51851 0.884215 5.92308 3.16429 5.92308 4.03518C5.92308 5.36311 5.18798 6.31018 4.1012 6.69104L4.44231 12.7365C4.46082 13.0844 4.1726 13.3789 3.80769 13.3789H2.11538C1.75313 13.3789 1.46226 13.0869 1.48077 12.7365L1.82188 6.69104C0.732452 6.31018 0 5.36057 0 4.03518C0 3.16175 0.404567 0.884215 0.425721 0.764879C0.510337 0.249451 1.62356 0.241833 1.69231 0.792809V4.37796C1.72668 4.46428 2.09159 4.45921 2.11538 4.37796C2.1524 3.73557 2.32428 0.84359 2.32692 0.777574C2.41418 0.249451 3.50889 0.249451 3.59351 0.777574C3.5988 0.846129 3.76803 3.73557 3.80505 4.37796C3.82885 4.45921 4.19639 4.46428 4.22813 4.37796V0.792809C4.29688 0.244373 5.41274 0.249451 5.49736 0.764879ZM8.64928 8.01896L8.25264 12.7188C8.22091 13.0742 8.51442 13.3789 8.88462 13.3789H10.3654C10.7171 13.3789 11 13.1072 11 12.7695V0.988316C11 0.653161 10.7171 0.378943 10.3654 0.378943C8.18389 0.378943 4.51106 4.91116 8.64928 8.01896Z" fill="white" stroke="none"/>
</svg>